<?xml version="1.0" encoding="UTF-8"?>
<svg id="Calque_1" data-name="Calque 1" xmlns="http://www.w3.org/2000/svg" viewBox="0 0 1920 1078.41">
  <defs>
    <style>
      .cls-1 {
        fill: #77787b;
      }

      .cls-2 {
        fill: #41af64;
      }

      .cls-3 {
        fill: #8a8c8e;
      }

      .cls-4 {
        fill: #e23032;
      }

      .cls-5 {
        fill: #333;
      }

      .cls-6 {
        fill: #6d6e71;
      }

      .cls-7 {
        fill: #e2e220;
      }

      .cls-8 {
        fill: none;
      }

      .cls-9 {
        fill: #e6e7e8;
      }

      .cls-10 {
        fill: #8d8584;
      }
    </style>
  </defs>
  <rect class="cls-8" width="1920" height="1078.41"/>
  <g id="feux">
    <g id="feux-2" data-name="feux">
      <path class="cls-1" d="M1002.44,725.61c-4.7,1.88-11.75,1.64-15.99-.48-1.88-.7-2.82-1.88-2.82-3.06v59.52c0,.94,.94,2.36,2.82,3.06,4.24,2.12,11.3,2.36,15.99,.48,2.82-.96,3.76-2.36,3.76-3.54v-59.73c0,1.4-.94,3.06-3.76,3.76Z"/>
      <path class="cls-9" d="M1002.44,725.61c-4.7,1.88-11.75,1.64-15.99-.48-4.24-1.88-3.3-4.94,.94-6.58,4.7-1.88,12.24-1.64,16.47,.24,3.76,2.12,3.28,5.15-1.42,6.82Z"/>
      <path class="cls-10" d="M998.68,512.25c-1.88,.48-5.18,.48-7.54-.22-1.88-1.18-1.4-2.6,.94-3.06,1.88-.94,5.18-.94,7.06,.22,1.88,.72,1.88,2.12-.46,3.06Z"/>
      <path class="cls-1" d="M998.68,512.25c-2.36,.72-5.66,.48-7.54-.22-.46-.48-.94-1.18-.94-1.42v210.06c0,.7,.48,1.18,.94,1.4,1.88,.94,5.18,1.18,7.54,.24,.94-.46,1.4-.94,1.4-1.64v-210.06c0,.48-.46,1.18-1.4,1.64Z"/>
      <g id="feux-3" data-name="feux">
        <g id="feux-4" data-name="feux">
          <polygon class="cls-6" points="995.38 586.82 973.27 600.24 973.27 529.91 995.38 527.79 995.38 586.82"/>
          <polygon class="cls-5" points="973.27 600.24 952.1 589.88 952.1 519.55 973.27 529.91 973.27 600.24"/>
        </g>
        <path class="cls-4" d="M956.34,534.36c-1.42,4.94,.46,10.6,3.76,12.72,3.3,2.12,7.06-.24,8-5.18,.94-4.94-.46-10.6-3.76-12.48-3.76-2.12-7.06,0-8,4.94Z"/>
        <path class="cls-7" d="M956.34,556.01c-1.42,4.94,.46,10.57,3.76,12.69,3.3,2.12,7.06-.24,8-5.18,.94-4.7-.46-10.57-3.76-12.45-3.76-2.12-7.06,0-8,4.94Z"/>
        <path class="cls-2" d="M956.34,577.64c-1.42,4.94,.46,10.6,3.76,12.72,3.3,2.1,7.06-.24,8-5.18,.94-4.72-.46-10.6-3.76-12.48-3.76-2.12-7.06,0-8,4.94Z"/>
      </g>
      <g id="feux-5" data-name="feux">
        <g id="feux-6" data-name="feux">
          <polygon class="cls-3" points="995.38 586.82 1017.01 600.24 1017.01 530.15 995.38 527.79 995.38 586.82"/>
          <polygon class="cls-5" points="1017.01 600.24 1038.67 589.88 1038.67 519.79 1017.01 530.15 1017.01 600.24"/>
        </g>
        <path class="cls-4" d="M1034.43,534.6c1.42,4.94-.46,10.6-3.76,12.69-3.3,2.12-7.06-.22-8-5.15-.94-4.94,.46-10.6,3.76-12.72,3.76-1.88,7.06,.24,8,5.18Z"/>
        <path class="cls-7" d="M1034.43,556.26c1.42,4.94-.46,10.57-3.76,12.69-3.3,2.12-7.06-.24-8-5.18-.94-4.94,.46-10.57,3.76-12.69,3.76-1.88,7.06,.24,8,5.18Z"/>
        <path class="cls-2" d="M1034.43,577.89c1.42,4.94-.46,10.57-3.76,12.69-3.3,2.12-7.06-.22-8-5.15-.94-4.96,.46-10.6,3.76-12.72,3.76-2.12,7.06,.24,8,5.18Z"/>
      </g>
    </g>
  </g>
</svg>